# xmcd
#
# Track frame offsets: 
#        150
#        21067
#        40625
#        70012
#        92777
#        116120
#        141820
#        174945
#        197402
#
# Disc length: 2910 seconds
#
# Revision: 23
# Processed by: cddbd v1.5.2PL0 Copyright (c) Steve Scherf et al.
# Submitted via: ExactAudioCopy v1.3
#
DISCID=6d0b5c09
DTITLE=Ego Wrappin' - Night Food
DYEAR=2002
DGENRE=JPop
TTITLE0=BIG NOISE FROM WINNETKA～黒アリのマーチングバンド
TTITLE1=くちばしにチェリー
TTITLE2=あしながのサルヴァドール
TTITLE3=5月のクローバー
TTITLE4=チェルシーはうわの空
TTITLE5=PAPPAYA
TTITLE6=老いぼれ犬のセレナーデ
TTITLE7=WHOLE WORLD HAPPY
TTITLE8=SORA NO LION
EXTD=YEAR: 2002
EXTT0=
EXTT1=
EXTT2=
EXTT3=
EXTT4=
EXTT5=
EXTT6=
EXTT7=
EXTT8=
PLAYORDER=
